<?xml version="1.0" encoding="UTF-8" standalone="no"?>
<svg xmlns="http://www.w3.org/2000/svg" xmlns:xlink="http://www.w3.org/1999/xlink" width="67.677mm" height="7.177mm" viewBox="17.451982 -20.402248 67.677353 7.176868">
    <path transform="matrix(1,0,0,-1,0,0)" style="stroke:none;fill:#000000;fill-rule:evenodd" d="M40.401306,14.204223C40.419662,14.204533,40.437916,14.20705,40.455666,14.211737C40.487709,14.220296,40.516991,14.237008,40.540653,14.260249C40.556999,14.276135,40.570915,14.294338,40.581978,14.314266C40.597397,14.34248,40.606037,14.373891,40.607239,14.406019C40.608196,14.428023,40.606297,14.450058,40.601601,14.471575C40.595726,14.498379,40.584316,14.523661,40.568108,14.545799C40.550797,14.569355,40.52858,14.588878,40.503002,14.603028C40.483227,14.613748,40.461811,14.621109,40.439629,14.624834C40.424908,14.627348,40.41,14.628572,40.395065,14.628501L37.594379,14.625608L37.653687,14.727512L37.661545,14.740997L37.670296,14.755974L37.679943,14.772444L37.690483,14.790407L37.70192,14.809862L37.714249,14.830811L37.727467,14.853251L37.741585,14.877188L37.756592,14.902613L37.772491,14.929532L37.789288,14.957946L37.806976,14.98785L37.845036,15.052136L37.865402,15.086521L37.886669,15.122396L37.909004,15.160113L37.920647,15.179792L37.94487,15.220795L37.970352,15.263983L37.997093,15.309364L38.025093,15.356932L38.054344,15.406692L38.084862,15.458638L38.116631,15.512774L38.149658,15.569103L38.183941,15.627619L38.219486,15.688324L38.256287,15.751219L38.294342,15.816299L38.333656,15.883574L38.374229,15.953037L38.416115,16.024769L38.43766,16.061649L38.482025,16.137531L38.528072,16.216232L38.551731,16.256641L38.600311,16.339571L38.650581,16.42532L38.702541,16.513891L38.756184,16.605282L38.81152,16.69949L38.868542,16.796516L38.92725,16.896366L38.987644,16.999033L39.049728,17.104521L39.113503,17.21283L39.178963,17.323956L39.246109,17.437904L39.314991,17.554766L39.350182,17.614492L39.38588,17.675114L39.422096,17.736633L39.45882,17.799046L39.496056,17.862354L39.53381,17.926559L39.572075,17.991661L39.610851,18.057657L39.650146,18.12455L39.689949,18.192335L39.730267,18.261019L39.771095,18.330599L39.812435,18.401073L39.854294,18.472443L39.89666,18.544708L39.939541,18.617868L39.982933,18.691925L40.02684,18.766876L40.071259,18.842726L40.116196,18.919468L40.16164,18.99711L40.25407,19.155073L40.348553,19.316624L40.396564,19.398741L40.494122,19.565662L40.593735,19.736168L40.64431,19.822762C40.651104,19.840611,40.656898,19.858824,40.661659,19.877317C40.664986,19.890121,40.667366,19.903154,40.668777,19.916309C40.669689,19.926029,40.669903,19.935801,40.669422,19.945551C40.668991,19.960274,40.667175,19.974924,40.664001,19.989307C40.661404,20.00123,40.657173,20.012737,40.651436,20.023506C40.649265,20.027487,40.646812,20.031307,40.644093,20.034937C40.638069,20.048113,40.63076,20.060665,40.622272,20.072409C40.611824,20.086893,40.599194,20.099674,40.584839,20.110296C40.570541,20.120741,40.554691,20.12887,40.537868,20.134382C40.524387,20.138798,40.510487,20.141817,40.496384,20.143389C40.486217,20.144548,40.475986,20.145115,40.465752,20.145082L37.435921,20.141953C37.415558,20.142057,37.395294,20.139017,37.375858,20.13294C37.35363,20.125807,37.332939,20.114569,37.314857,20.099808C37.290421,20.079906,37.270248,20.055277,37.255558,20.027391C37.242409,20.001894,37.234711,19.973934,37.232956,19.945297C37.231274,19.921246,37.23349,19.897079,37.239529,19.873737C37.24651,19.847591,37.258518,19.823057,37.274879,19.801502C37.287563,19.784513,37.30249,19.76932,37.319248,19.756336C37.348503,19.733805,37.38382,19.72051,37.42067,19.718151C37.425892,19.717777,37.431122,19.717596,37.436359,19.717607L40.092766,19.72035L40.033463,19.618446L40.025604,19.604961L40.01685,19.589985L40.007202,19.573515L39.996662,19.555552L39.985229,19.536097L39.9729,19.515148L39.959679,19.492706L39.945564,19.468773L39.930557,19.443346L39.914654,19.416428L39.880169,19.358109L39.861588,19.326712L39.821743,19.259438L39.80048,19.223562L39.778137,19.185846L39.766499,19.166166L39.742271,19.125164L39.716789,19.081976L39.690048,19.036594L39.662056,18.989027L39.632797,18.939268L39.602287,18.887321L39.570515,18.833183L39.537491,18.776855L39.503204,18.71834L39.467659,18.657635L39.430862,18.594744L39.392799,18.529659L39.353485,18.462385L39.312912,18.392921L39.27103,18.321192L39.249485,18.284309L39.20512,18.208429L39.159073,18.129726L39.135414,18.089317L39.08683,18.006388L39.036564,17.920639L38.984608,17.832067L38.930962,17.740679L38.875626,17.646469L38.818607,17.549442L38.759899,17.449593L38.699501,17.346926L38.637417,17.241438L38.573643,17.133129L38.508183,17.022003L38.441036,16.908054L38.372154,16.791195L38.336967,16.731468L38.301266,16.670845L38.265053,16.609327L38.228325,16.546915L38.191086,16.483604L38.153336,16.419399L38.11507,16.3543L38.076294,16.288303L38.037003,16.221413L37.9972,16.153624L37.956882,16.084942L37.916054,16.015362L37.87471,15.944888L37.832855,15.873516L37.790489,15.801253L37.747608,15.72809L37.704212,15.654034L37.660305,15.579082L37.615883,15.503233L37.570953,15.426488L37.525505,15.348849L37.433075,15.190884L37.338593,15.029335L37.290585,14.947219L37.193024,14.780296L37.093414,14.609791L37.042839,14.523196L37.040752,14.520516C37.029591,14.505651,37.021328,14.488819,37.016403,14.470896C37.011948,14.454698,37.009502,14.438013,37.009125,14.421218C37.008446,14.405375,37.009766,14.389509,37.013054,14.373997C37.018013,14.350955,37.028282,14.329388,37.043056,14.311022C37.050102,14.297855,37.058258,14.285315,37.067459,14.273554C37.077312,14.260942,37.088638,14.249557,37.101204,14.239649C37.122082,14.223302,37.146362,14.211852,37.172249,14.206106C37.188385,14.202528,37.204868,14.200773,37.221397,14.200876L40.395508,14.204155L40.401306,14.204223z"/>
    <path transform="matrix(1,0,0,-1,0,0)" style="stroke:none;fill:#000000;fill-rule:evenodd" d="M24.986832,14.188368C25.078024,14.188918,25.169123,14.194214,25.259762,14.204235C25.345898,14.213756,25.43141,14.228232,25.515879,14.247591C25.607695,14.268622,25.697903,14.296148,25.78582,14.32996C25.90616,14.376364,26.02132,14.435217,26.129425,14.505557C26.225519,14.567789,26.315376,14.639157,26.397743,14.718668C26.487259,14.805357,26.567341,14.901288,26.636641,15.004851C26.699265,15.098103,26.753309,15.196838,26.798111,15.299847C26.837383,15.390572,26.869654,15.484167,26.894642,15.579817C26.917763,15.668336,26.935307,15.758217,26.947176,15.848932C26.958878,15.93837,26.965824,16.02837,26.967983,16.118544C26.968613,16.14344,26.968914,16.168364,26.968885,16.193268L26.964809,20.13969C26.964928,20.15996,26.962549,20.180166,26.957727,20.199854C26.948658,20.236671,26.929127,20.270081,26.901493,20.296043C26.875336,20.321003,26.842794,20.338255,26.807457,20.3459C26.777504,20.352438,26.746609,20.353407,26.716305,20.348763C26.684614,20.343601,26.654566,20.331114,26.628551,20.312296C26.611189,20.299952,26.595638,20.28524,26.58235,20.268587C26.564077,20.245291,26.551447,20.218079,26.545446,20.189085C26.542044,20.172695,26.540373,20.155993,26.540462,20.139252L26.544538,16.192831C26.544689,16.127747,26.541901,16.062691,26.53618,15.997857C26.53017,15.929476,26.520363,15.861481,26.506802,15.794189C26.493834,15.729886,26.476959,15.66643,26.456276,15.604177C26.432289,15.531975,26.402683,15.461761,26.367729,15.394183C26.312946,15.288536,26.244902,15.190315,26.165245,15.1019C26.110283,15.040739,26.05023,14.984351,25.985733,14.933343C25.892309,14.859612,25.789856,14.798107,25.680857,14.75032C25.61623,14.721996,25.549702,14.698235,25.481752,14.679208C25.417515,14.661229,25.352272,14.647047,25.286366,14.636738C25.217098,14.625912,25.147306,14.618785,25.07728,14.615387C24.982759,14.610672,24.888039,14.611951,24.793678,14.619215C24.7248,14.62454,24.65626,14.633642,24.588377,14.646479C24.523512,14.658754,24.459444,14.674921,24.396521,14.69489C24.323582,14.718033,24.252544,14.746788,24.184044,14.780899C24.077126,14.834262,23.97739,14.900946,23.88722,14.979361C23.82003,15.037653,23.758289,15.101942,23.702759,15.171432C23.628378,15.26474,23.566267,15.367199,23.517944,15.476304C23.489357,15.540901,23.465363,15.607436,23.44614,15.675411C23.427986,15.739634,23.413668,15.804877,23.403254,15.870798C23.393431,15.932951,23.386635,15.995544,23.382891,16.058357C23.380262,16.102043,23.378937,16.145794,23.378916,16.189562L23.37484,20.135983C23.374956,20.156252,23.372578,20.176458,23.367756,20.196148C23.358688,20.232964,23.339157,20.266373,23.311523,20.292336C23.285366,20.317295,23.252823,20.334547,23.217487,20.342192C23.187534,20.34873,23.156639,20.349701,23.126335,20.345055C23.094645,20.339893,23.064596,20.327406,23.038582,20.308588C23.021219,20.296244,23.005669,20.281532,22.99238,20.264879C22.974106,20.241583,22.961475,20.214371,22.955475,20.185377C22.952074,20.168987,22.950403,20.152285,22.950493,20.135544L22.954569,16.189123C22.954525,16.097591,22.959209,16.006121,22.968605,15.915073C22.977524,15.828606,22.991388,15.742718,23.010128,15.657835C23.030466,15.565651,23.057297,15.475019,23.09042,15.386621C23.156143,15.211494,23.248123,15.047385,23.363207,14.899925C23.46257,14.773019,23.579071,14.660524,23.709377,14.565666C23.862146,14.454475,24.030766,14.366888,24.209581,14.305839C24.299919,14.275005,24.392284,14.25045,24.486006,14.232348C24.572372,14.215666,24.659601,14.203818,24.747288,14.196859C24.826971,14.190521,24.9069,14.187687,24.986832,14.188368z"/>
    <path transform="matrix(1,0,0,-1,0,0)" style="stroke:none;fill:#000000;fill-rule:evenodd" d="M19.761822,14.183045C19.782459,14.183211,19.803013,14.185719,19.823082,14.190535C19.843636,14.195471,19.863247,14.203736,19.881138,14.214994C19.900742,14.227562,19.917742,14.24379,19.931213,14.262783C19.942608,14.278897,19.951946,14.296371,19.959009,14.314798L19.960621,14.319009L22.050941,20.083796L22.052986,20.089096C22.059998,20.107456,22.064442,20.126696,22.066193,20.146271C22.068752,20.176805,22.063538,20.207493,22.051035,20.235468C22.038454,20.264153,22.019897,20.289825,21.996601,20.310766C21.979296,20.326092,21.959846,20.338812,21.938868,20.348524C21.922184,20.356487,21.904659,20.362553,21.886621,20.366608C21.864948,20.371473,21.842577,20.372417,21.820568,20.369396C21.800201,20.366436,21.780453,20.360167,21.762108,20.350838C21.72452,20.332209,21.693066,20.303179,21.671492,20.2672C21.663876,20.254587,21.657326,20.241364,21.651907,20.227661L19.756218,15.014726L17.85825,20.223743C17.85025,20.244036,17.839666,20.263212,17.826763,20.280798C17.806068,20.308743,17.778992,20.331335,17.747793,20.346691C17.727936,20.356764,17.706438,20.363218,17.684313,20.365751C17.663902,20.367924,17.643272,20.366726,17.623251,20.362206C17.591248,20.354898,17.561005,20.34136,17.534237,20.322361C17.503696,20.300444,17.479965,20.270342,17.465782,20.235531C17.451317,20.200974,17.4473,20.162933,17.454227,20.126118C17.457222,20.110008,17.461838,20.094244,17.468002,20.079063L19.561737,14.318597C19.568136,14.30125,19.576382,14.284643,19.586327,14.269058C19.598019,14.250681,19.612823,14.234478,19.630089,14.221199C19.648235,14.207502,19.668823,14.19739,19.690762,14.191427C19.71092,14.185971,19.731705,14.183158,19.752588,14.183036C19.755667,14.182988,19.758743,14.182995,19.761822,14.183045z"/>
    <path transform="matrix(1,0,0,-1,0,0)" style="stroke:none;fill:#000000;fill-rule:evenodd" d="M31.997856,14.195522C32.022427,14.196327,32.046688,14.201248,32.069637,14.21006C32.07901,14.213562,32.088181,14.21758,32.097115,14.222082C32.13335,14.244546,32.161987,14.27739,32.179333,14.316336C32.188011,14.335212,32.194115,14.355171,32.197472,14.375673C32.201797,14.403942,32.200104,14.432805,32.19252,14.460379C32.187847,14.477783,32.18137,14.494653,32.173199,14.510716L30.855263,16.894182L30.867172,16.896887C30.977875,16.922171,31.08569,16.95874,31.188931,17.006021C31.313475,17.063345,31.430149,17.136408,31.536098,17.223425C31.692039,17.350805,31.825058,17.503904,31.929413,17.676105C31.973717,17.748968,32.012829,17.824863,32.046452,17.903229C32.099876,18.028683,32.137333,18.160351,32.157944,18.295139L33.34943,16.217804C33.362103,16.19688,33.377563,16.177778,33.395378,16.161015C33.411011,16.146568,33.428822,16.134678,33.448158,16.125782C33.468842,16.116405,33.490982,16.110628,33.513611,16.1087C33.525574,16.107607,33.537594,16.107347,33.549595,16.107914C33.568432,16.108675,33.587132,16.111483,33.605362,16.116287C33.621975,16.120789,33.637878,16.127579,33.652626,16.136461C33.67366,16.149342,33.691654,16.166626,33.705372,16.187124C33.712074,16.19696,33.717926,16.207354,33.722855,16.218189L35.54427,19.394184L35.549404,14.420845C35.549152,14.392853,35.554676,14.36511,35.565639,14.339353C35.574314,14.319437,35.58622,14.301092,35.600887,14.285069C35.617161,14.266907,35.636452,14.251692,35.657906,14.240089C35.681881,14.22741,35.708248,14.219898,35.735306,14.218046C35.758488,14.216311,35.781796,14.217772,35.804577,14.222389C35.844986,14.230411,35.882244,14.24987,35.911907,14.278458C35.928009,14.293655,35.941582,14.311324,35.952114,14.330799C35.964958,14.355154,35.972244,14.382052,35.973446,14.409559C35.973656,14.413464,35.973755,14.417374,35.973751,14.421284L35.967793,20.187851C35.967602,20.211142,35.96397,20.234276,35.957012,20.256504C35.945602,20.291605,35.92437,20.322701,35.895824,20.346104C35.879421,20.359745,35.861408,20.371328,35.842186,20.380596C35.830528,20.38636,35.818558,20.391476,35.806328,20.395914C35.782249,20.402607,35.757065,20.404375,35.732285,20.40111C35.715302,20.39904,35.698563,20.395288,35.682323,20.38991C35.666283,20.384874,35.650921,20.377893,35.636578,20.369123C35.610279,20.352913,35.588623,20.33017,35.573719,20.303106C35.571999,20.300055,35.570362,20.296961,35.568802,20.293825L33.535599,16.744186L32.15345,19.155718L31.968079,19.369312L31.965244,19.374348C31.931591,19.433037,31.89477,19.489853,31.85495,19.544548C31.807785,19.609354,31.756367,19.670954,31.701031,19.728937C31.609362,19.824804,31.507385,19.910252,31.396954,19.983728C31.3409,20.021248,31.282742,20.055517,31.222763,20.086369C31.077162,20.160696,30.920982,20.212151,30.759714,20.23892C30.679346,20.25238,30.598137,20.260208,30.516678,20.262346C30.498245,20.262863,30.479824,20.263111,30.461384,20.26309L28.3736,20.260933C28.329792,20.261206,28.287109,20.247046,28.25215,20.220646C28.227673,20.202318,28.206814,20.179605,28.190634,20.15366C28.172256,20.12356,28.162266,20.089088,28.161705,20.053825L28.161644,20.048542L28.167473,14.404737C28.167332,14.381435,28.171352,14.358297,28.179354,14.336412C28.187191,14.315441,28.198725,14.296045,28.213406,14.279141C28.23385,14.255243,28.258936,14.235746,28.287144,14.221834C28.312847,14.209468,28.340828,14.202539,28.369331,14.20149C28.394991,14.20034,28.420673,14.203127,28.445484,14.209757C28.478821,14.219033,28.509125,14.236919,28.533375,14.261603C28.549555,14.277833,28.56291,14.296651,28.572884,14.317284C28.583061,14.3388,28.589211,14.361999,28.59103,14.385731C28.591564,14.392198,28.591827,14.398685,28.59182,14.405174L28.58621,19.836807L30.461821,19.838743C30.552437,19.839073,30.642853,19.830208,30.731678,19.812286C30.869024,19.784191,31.000509,19.732668,31.120377,19.659975C31.210104,19.606178,31.293291,19.542164,31.368279,19.469212C31.442192,19.397007,31.50742,19.316418,31.562634,19.22908C31.609615,19.155506,31.648457,19.077044,31.678478,18.995075C31.708002,18.914173,31.728756,18.830339,31.740391,18.745008C31.749096,18.682178,31.75337,18.618811,31.753185,18.55538C31.753246,18.469046,31.745016,18.382906,31.728609,18.298145C31.700958,18.15741,31.648754,18.022636,31.57439,17.899994C31.519114,17.80785,31.452873,17.722746,31.377115,17.646542C31.308098,17.57737,31.231625,17.516056,31.149103,17.463724C31.078148,17.418253,31.002766,17.380091,30.924118,17.349821C30.832813,17.314852,30.737652,17.290924,30.640667,17.278547C30.582245,17.270945,30.523392,17.267155,30.464478,17.267206L29.165977,17.265865C29.139114,17.26602,29.112465,17.261082,29.08744,17.251308C29.066053,17.242783,29.046169,17.230885,29.028545,17.216068C29.013641,17.203831,29.00045,17.189644,28.989326,17.173893C28.972631,17.149811,28.961624,17.12225,28.95714,17.09329C28.952953,17.06794,28.95298,17.04207,28.957222,17.016727C28.962645,16.986439,28.975071,16.957836,28.993502,16.933197C29.012821,16.906961,29.037193,16.884859,29.065191,16.868195C29.094383,16.851276,29.127417,16.84211,29.161152,16.841574L29.166416,16.841518L30.405506,16.842798L31.808472,14.306652C31.820337,14.284967,31.835701,14.26539,31.853962,14.248732C31.874943,14.229916,31.899561,14.215605,31.926285,14.206662C31.949287,14.19871,31.973526,14.194937,31.997856,14.195522z"/>
    <path transform="matrix(1,0,0,-1,0,0)" style="stroke:none;fill:#000000;fill-rule:evenodd" d="M79.00502,14.611538C79.080688,14.620847,79.137329,14.685611,79.136406,14.76185L79.136406,17.249424C79.136101,17.292265,79.11808,17.333096,79.086548,17.362099C79.055023,17.391102,79.012825,17.405651,78.970108,17.402386L78.052246,17.402386C78.010551,17.404163,77.969955,17.388807,77.939819,17.359934C77.909691,17.33106,77.892624,17.291159,77.892624,17.249424C77.891357,17.159601,77.962448,17.085516,78.052246,17.08313L78.817154,17.08313L78.817154,14.76185C78.815781,14.720875,78.831451,14.681158,78.860435,14.652162C78.88942,14.623165,78.929131,14.607483,78.970108,14.608792L79.00502,14.611538z"/>
    <path transform="matrix(1,0,0,-1,0,0)" style="stroke:none;fill:#000000;fill-rule:evenodd" d="M50.528648,14.611538C50.602592,14.622322,50.656498,14.687178,50.653564,14.76185L50.653564,16.604244C50.660721,16.805912,50.606491,17.005016,50.498055,17.1752C50.374962,17.347925,50.183556,17.459469,49.972595,17.481415C49.784523,17.497761,49.5951,17.47694,49.415073,17.420134C49.183002,17.352077,48.960949,17.253628,48.754692,17.12735C48.713593,17.104357,48.673267,17.07999,48.633797,17.054302C48.586136,17.01276,48.570564,16.945364,48.595161,16.887123C48.624718,16.806477,48.71283,16.763657,48.794502,16.790249C48.882362,16.838932,48.957249,16.880873,49.044632,16.930365L49.115032,16.966742C49.308403,17.070702,49.518623,17.139679,49.735996,17.170494C49.844254,17.186575,49.954849,17.175694,50.057899,17.138823C50.171505,17.097168,50.258293,17.003407,50.291069,16.886927C50.318699,16.795202,50.333256,16.700035,50.334309,16.604244L50.334309,16.418043L49.210243,16.225079C49.048149,16.202515,48.892097,16.148054,48.751163,16.064861C48.534702,15.934533,48.398151,15.704099,48.387783,15.451645C48.377792,15.311819,48.395592,15.17137,48.440144,15.038455C48.482941,14.912599,48.565712,14.804213,48.675858,14.729788C48.825745,14.643708,48.997631,14.603575,49.170139,14.614381C49.286419,14.618408,49.402161,14.632118,49.516163,14.655367L50.334309,14.814995L50.334309,14.76185C50.334343,14.720119,50.35141,14.680222,50.381535,14.651341C50.411659,14.622461,50.45224,14.60709,50.493935,14.608792L50.528648,14.611538zM49.068851,14.944717C49.002338,14.946274,48.936756,14.960904,48.875885,14.987762C48.792809,15.031998,48.735203,15.112441,48.720081,15.205339C48.691853,15.335684,48.700127,15.471213,48.744007,15.597155C48.811836,15.735747,48.937096,15.837632,49.086597,15.875817C49.146698,15.894404,49.207989,15.908884,49.270054,15.919156L50.334309,16.098787L50.334309,15.134252L49.46302,14.974623C49.333149,14.950058,49.200943,14.940027,49.068851,14.944717z"/>
    <path transform="matrix(1,0,0,-1,0,0)" style="stroke:none;fill:#000000;fill-rule:evenodd" d="M74.52179,14.611538C74.595749,14.622311,74.649643,14.687176,74.646713,14.76185L74.646713,16.604244C74.653854,16.80591,74.599625,17.005011,74.491203,17.1752C74.368103,17.347925,74.176697,17.459469,73.965744,17.481415C73.777672,17.497761,73.588249,17.47694,73.408218,17.420134C73.176147,17.352083,72.954094,17.253633,72.747841,17.12735C72.706741,17.104351,72.66642,17.07999,72.626938,17.054302C72.579277,17.012764,72.563713,16.945364,72.58831,16.887123C72.617867,16.806479,72.705978,16.763672,72.787651,16.790249C72.875519,16.838919,72.950424,16.880886,73.037781,16.930365L73.108185,16.966742C73.301552,17.0707,73.511772,17.139679,73.729141,17.170494C73.837402,17.186579,73.947998,17.175694,74.051048,17.138823C74.164658,17.097179,74.251442,17.00341,74.28421,16.886927C74.311844,16.7952,74.326401,16.700035,74.327454,16.604244L74.327454,16.418043L73.203384,16.225079C73.04129,16.202513,72.885246,16.148054,72.744308,16.064861C72.527878,15.934495,72.391304,15.704093,72.380829,15.451645C72.370941,15.311815,72.388771,15.171377,72.433289,15.038455C72.476082,14.912595,72.558853,14.804207,72.669006,14.729788C72.818893,14.643703,72.990784,14.603571,73.163284,14.614381C73.279572,14.618406,73.395309,14.632114,73.509308,14.655367L74.327454,14.814995L74.327454,14.76185C74.327545,14.720121,74.344604,14.68022,74.37471,14.651327C74.404816,14.622435,74.445389,14.607038,74.487083,14.608792L74.52179,14.611538zM73.061996,14.944717L72.987968,14.952856C72.917618,14.959628,72.851326,14.988962,72.799026,15.036493C72.745682,15.096281,72.712509,15.171341,72.704208,15.251032C72.687515,15.367401,72.698799,15.486023,72.737152,15.597155C72.804993,15.73574,72.930252,15.837626,73.079742,15.875817C73.139847,15.894404,73.201141,15.908885,73.263199,15.919156L74.327454,16.098787L74.327454,15.134252L73.45607,14.974623C73.326233,14.950052,73.194061,14.940022,73.061996,14.944717z"/>
    <path transform="matrix(1,0,0,-1,0,0)" style="stroke:none;fill:#000000;fill-rule:evenodd" d="M76.349968,14.617028C76.407547,14.622268,76.456802,14.66069,76.475868,14.715277L77.50679,17.282665L77.519531,17.312668C77.531479,17.385576,77.493782,17.457336,77.426971,17.488867C77.356552,17.514561,77.277695,17.488708,77.23616,17.42631L77.220764,17.395817L76.322807,15.194161L75.438187,17.395817C75.4021,17.473612,75.312744,17.511051,75.231979,17.482201C75.162529,17.453297,75.122482,17.380075,75.135597,17.306002L75.145599,17.275997L76.176514,14.715277C76.201813,14.643972,76.27581,14.602053,76.349968,14.617028z"/>
    <path transform="matrix(1,0,0,-1,0,0)" style="stroke:none;fill:#000000;fill-rule:evenodd" d="M55.441925,14.617715C55.79562,14.633743,56.12603,14.79829,56.351944,15.07091C56.373833,15.097198,56.393383,15.125351,56.410381,15.155039C56.441196,15.224289,56.417229,15.305616,56.353806,15.347122C56.319607,15.371574,56.276962,15.381084,56.235596,15.373569C56.194233,15.366054,56.157658,15.342149,56.134266,15.307215L56.104557,15.266622C55.932693,15.066635,55.685589,14.947057,55.422119,14.936383C55.296108,14.928741,55.169735,14.943075,55.048637,14.978742C54.867767,15.034197,54.716911,15.160374,54.630348,15.32859C54.54752,15.483734,54.495861,15.653567,54.478271,15.828556C54.46907,15.909414,54.464584,15.990737,54.464836,16.072117L56.393711,16.072117C56.479801,16.071115,56.550671,16.139025,56.553341,16.225079L56.553341,16.245081C56.547581,16.422564,56.512459,16.597868,56.449406,16.763872C56.322243,17.095566,56.049507,17.350258,55.7099,17.454451C55.428165,17.533529,55.128128,17.516382,54.857239,17.40572C54.588829,17.284035,54.378952,17.061764,54.27285,16.786816C54.174809,16.528549,54.131859,16.252659,54.146759,15.97681C54.147835,15.71269,54.210167,15.45238,54.328838,15.216419C54.513504,14.852804,54.885193,14.621735,55.292984,14.617028C55.342606,14.614727,55.392323,14.614958,55.441925,14.617715zM54.484741,16.384804L54.505432,16.476875C54.542877,16.638985,54.619049,16.789612,54.727421,16.915854C54.868149,17.071434,55.065445,17.164093,55.27504,17.173042C55.432713,17.189085,55.591812,17.162361,55.735588,17.09568C55.921036,17.001209,56.063942,16.840122,56.135639,16.644739C56.168259,16.560724,56.192337,16.473642,56.207512,16.384804L54.484741,16.384804z"/>
    <path transform="matrix(1,0,0,-1,0,0)" style="stroke:none;fill:#000000;fill-rule:evenodd" d="M52.508804,14.616735C52.69223,14.615853,52.874062,14.650968,53.043968,14.720081C53.294018,14.815595,53.470963,15.041557,53.503735,15.307215C53.529057,15.447723,53.514202,15.592569,53.460884,15.725014C53.401482,15.840445,53.312393,15.937855,53.202713,16.007305C53.104584,16.071688,52.998047,16.122236,52.886105,16.15752C52.713333,16.211559,52.537888,16.256592,52.360451,16.292439L52.280048,16.313423C52.147968,16.343136,52.022251,16.396391,51.909019,16.4706C51.855949,16.50135,51.812695,16.546543,51.784298,16.60091C51.741421,16.687944,51.740517,16.79003,51.781845,16.877808C51.809277,16.943602,51.85601,16.999535,51.915882,17.038221C52.027233,17.108955,52.153572,17.152534,52.284851,17.165493C52.466316,17.192513,52.651623,17.175014,52.824821,17.114506C52.969448,17.057425,53.091957,16.955561,53.174477,16.823782L53.189869,16.796524C53.229198,16.747578,53.294506,16.72777,53.354401,16.746616C53.438305,16.771141,53.485909,16.85918,53.460495,16.942818C53.361649,17.146029,53.191803,17.306074,52.983078,17.392679C52.781071,17.480843,52.560272,17.517305,52.340645,17.498772C52.148613,17.491455,51.961548,17.435699,51.796848,17.336691C51.653946,17.251904,51.543152,17.122147,51.481808,16.967722C51.424076,16.817963,51.423447,16.652168,51.480042,16.501976C51.525097,16.398661,51.598892,16.310431,51.692619,16.247826C51.826092,16.152115,51.975632,16.081081,52.134148,16.038094C52.298458,15.989746,52.464508,15.947523,52.631954,15.911509L52.69873,15.893564C52.826733,15.863451,52.947674,15.808693,53.054756,15.732368C53.150856,15.660914,53.205605,15.546604,53.20105,15.426936C53.20295,15.319178,53.16642,15.214284,53.097996,15.131016C53.022808,15.056653,52.929138,15.003863,52.826588,14.978055C52.588158,14.919851,52.339401,14.919716,52.100906,14.977663C51.935318,15.019479,51.789528,15.117946,51.688892,15.255934C51.666149,15.295267,51.644073,15.334914,51.622612,15.374969L51.603096,15.398697C51.551041,15.454185,51.465794,15.462534,51.403954,15.418209C51.340298,15.377595,51.315445,15.296751,51.345322,15.227401C51.428482,15.037609,51.572399,14.880827,51.754391,14.781755C51.958549,14.66814,52.189217,14.610753,52.42281,14.615459L52.508804,14.616735z"/>
    <path transform="matrix(1,0,0,-1,0,0)" style="stroke:none;fill:#000000;fill-rule:evenodd" d="M57.496403,14.618401C57.566963,14.633863,57.617271,14.696188,57.617496,14.76842L57.617496,16.391373C57.61232,16.531055,57.638073,16.670202,57.692898,16.798779C57.751835,16.919226,57.848522,17.017115,57.968227,17.077539C58.194626,17.19508,58.458374,17.216993,58.701065,17.13843C58.82402,17.096056,58.931519,17.017895,59.009735,16.91399C59.059219,16.84152,59.095474,16.760841,59.116806,16.675724L59.131615,16.650818C59.177689,16.590231,59.25993,16.570326,59.328598,16.603165C59.394928,16.636532,59.427864,16.712692,59.406746,16.783875C59.349224,17.015221,59.200638,17.21364,58.994831,17.333946C58.745972,17.49017,58.445675,17.542017,58.15884,17.478277C57.979298,17.433964,57.812706,17.348133,57.672405,17.227657L57.617496,17.169611L57.617496,17.335907C57.619244,17.377592,57.603874,17.418163,57.575005,17.448288C57.546139,17.478411,57.50626,17.495495,57.464535,17.495535C57.388477,17.49592,57.322838,17.44244,57.30785,17.367872L57.304909,17.335907L57.304909,14.76842C57.307941,14.682577,57.378639,14.614822,57.464535,14.615459L57.496403,14.618401z"/>
    <path transform="matrix(1,0,0,-1,0,0)" style="stroke:none;fill:#000000;fill-rule:evenodd" d="M65.564697,14.618205C65.638672,14.62952,65.6931,14.693584,65.692261,14.76842L65.692261,16.358133C65.687912,16.503023,65.717285,16.646978,65.778053,16.77858C65.872101,16.966335,66.046005,17.101532,66.251152,17.146372C66.422409,17.189209,66.601761,17.187759,66.772301,17.142157C66.900612,17.099981,67.007797,17.010063,67.071655,16.891045C67.117844,16.809072,67.148682,16.719357,67.162643,16.626307C67.179596,16.544659,67.188362,16.461523,67.18882,16.378136L67.18882,14.781755C67.188484,14.73932,67.205269,14.698575,67.235275,14.668564C67.265274,14.638552,67.306015,14.621755,67.34845,14.622128C67.423203,14.621762,67.487,14.675965,67.498764,14.74979L67.501511,14.781755L67.501511,16.378136C67.506325,16.571173,67.471375,16.763172,67.398849,16.942131C67.322685,17.127718,67.187454,17.283009,67.014099,17.383951C66.861282,17.465332,66.690155,17.506046,66.517067,17.502203C66.201134,17.503582,65.900116,17.367638,65.692261,17.129704L65.692261,17.349241C65.692642,17.391684,65.67585,17.432432,65.645836,17.462444C65.615822,17.492455,65.575073,17.509249,65.532631,17.508869C65.457901,17.50919,65.39415,17.455008,65.382416,17.381207L65.379669,17.349241L65.379669,14.76842C65.378326,14.727453,65.393982,14.687739,65.422966,14.658756C65.45195,14.629774,65.491661,14.614124,65.532631,14.615459L65.564697,14.618205z"/>
    <path transform="matrix(1,0,0,-1,0,0)" style="stroke:none;fill:#000000;fill-rule:evenodd" d="M80.199387,14.618205C80.273392,14.629452,80.32785,14.693567,80.32695,14.76842L80.32695,16.358133C80.322601,16.503023,80.351974,16.64698,80.41275,16.77858C80.50679,16.966335,80.680695,17.10153,80.885849,17.146372C81.057098,17.189209,81.23645,17.187759,81.40699,17.142157C81.535301,17.099977,81.642494,17.010067,81.706345,16.891045C81.752518,16.809067,81.783356,16.719353,81.797333,16.626307C81.814285,16.544659,81.823051,16.461523,81.823517,16.378136L81.823517,14.781755C81.823189,14.739319,81.839958,14.698564,81.869965,14.668547C81.899963,14.638531,81.940704,14.621739,81.983139,14.622128C82.057892,14.621799,82.121658,14.675982,82.133453,14.74979L82.1362,14.781755L82.1362,16.378136C82.141014,16.571173,82.106064,16.763172,82.033539,16.942131C81.957375,17.127716,81.822144,17.283003,81.648788,17.383951C81.495979,17.46533,81.324844,17.506044,81.151764,17.502203C80.835831,17.50358,80.534805,17.367638,80.32695,17.129704L80.32695,17.349241C80.327324,17.391685,80.310547,17.432442,80.280533,17.462456C80.250519,17.492472,80.209763,17.509262,80.16732,17.508869C80.09259,17.509199,80.028847,17.455008,80.017105,17.381207L80.014359,17.349241L80.014359,14.76842C80.013,14.727453,80.028656,14.68774,80.057648,14.658762C80.086639,14.629784,80.126358,14.61414,80.16732,14.615459L80.199387,14.618205z"/>
    <path transform="matrix(1,0,0,-1,0,0)" style="stroke:none;fill:#000000;fill-rule:evenodd" d="M84.200195,13.230772C84.452179,13.251186,84.684753,13.374292,84.843315,13.571208C84.989746,13.752458,85.082596,13.971045,85.111389,14.20227C85.123566,14.288475,85.129562,14.375439,85.129333,14.462499L85.129333,17.342575C85.131416,17.385002,85.116318,17.426447,85.087547,17.457703C85.058777,17.488958,85.01873,17.507441,84.976273,17.508869C84.898834,17.506872,84.833511,17.450933,84.81958,17.374735L84.816643,17.342575L84.816643,17.176279L84.779968,17.214911C84.61795,17.369532,84.408173,17.464546,84.185089,17.484358C83.957504,17.514221,83.726089,17.489864,83.509712,17.413269C83.224243,17.301491,83.003098,17.068783,82.906006,16.777992C82.839233,16.570271,82.814339,16.351398,82.832764,16.133987C82.842476,15.968819,82.882217,15.806804,82.950027,15.655888C83.105225,15.318449,83.428116,15.088772,83.797791,15.052869C84.022064,15.02297,84.250198,15.045734,84.464149,15.119348C84.59819,15.169183,84.718857,15.249434,84.816643,15.35379L84.816643,14.462499C84.820503,14.305081,84.79451,14.148329,84.740067,14.000577C84.685875,13.852747,84.585205,13.726488,84.453171,13.640726C84.303711,13.556753,84.130379,13.52564,83.961044,13.552382C83.737198,13.575146,83.543671,13.718845,83.457153,13.926548C83.440063,13.96454,83.4254,14.00358,83.413223,14.043426L83.40097,14.071762C83.367264,14.14128,83.285126,14.172683,83.213692,14.143242C83.173904,14.132343,83.140495,14.1053,83.121521,14.068666C83.102554,14.03203,83.099762,13.989138,83.113876,13.950375C83.173157,13.737177,83.300446,13.549149,83.476379,13.414913C83.653,13.286795,83.866837,13.220205,84.084976,13.22538L84.200195,13.230772zM83.893295,15.357515L83.80043,15.368792C83.60537,15.394924,83.428978,15.49854,83.311157,15.656181C83.226067,15.777363,83.172241,15.917664,83.154465,16.064665C83.124756,16.262104,83.139023,16.46365,83.196243,16.654938C83.28141,16.927223,83.517464,17.12512,83.80043,17.161472C83.981346,17.19235,84.167068,17.178003,84.341095,17.119701C84.547417,17.045664,84.706161,16.877672,84.768402,16.667488C84.842621,16.406837,84.842621,16.130781,84.768402,15.870131C84.698318,15.6298,84.505127,15.445166,84.261871,15.386049C84.141388,15.356489,84.016884,15.346852,83.893295,15.357515z"/>
    <path transform="matrix(1,0,0,-1,0,0)" style="stroke:none;fill:#000000;fill-rule:evenodd" d="M64.490044,14.705079C64.567444,14.720987,64.622467,14.789339,64.622467,14.86835C64.622467,14.947361,64.567451,15.015715,64.490044,15.031591L64.455139,15.034533L62.286819,15.034533L62.286819,16.903597L64.08931,16.903597C64.180496,16.905293,64.253899,16.978701,64.2556,17.069893C64.256592,17.149715,64.200043,17.21863,64.121567,17.233246L64.08931,17.23609L62.286819,17.23609L62.286819,19.025339L64.455139,19.025339C64.499413,19.024746,64.542007,19.042145,64.573318,19.073456C64.60463,19.104767,64.622025,19.147358,64.621437,19.191635C64.622025,19.235912,64.60463,19.278503,64.573318,19.309814C64.542007,19.341125,64.499413,19.358524,64.455139,19.357931L62.120525,19.357931C62.029366,19.35615,61.956009,19.282795,61.954231,19.191635L61.954231,14.868237C61.956009,14.777075,62.029362,14.703703,62.120525,14.701941L64.455139,14.701941L64.490044,14.705079z"/>
    <path transform="matrix(1,0,0,-1,0,0)" style="stroke:none;fill:#000000;fill-rule:evenodd" d="M78.934616,18.609697C79.02272,18.619095,79.091171,18.690784,79.096497,18.779228L79.096497,19.191635C79.088684,19.297977,78.996704,19.378101,78.890297,19.371265C78.795166,19.375868,78.709045,19.315348,78.681152,19.224287L78.677429,19.191635L78.677429,18.779228C78.686249,18.689863,78.756477,18.619135,78.845779,18.609697C78.875229,18.605251,78.905167,18.605251,78.934616,18.609697z"/>
    <path transform="matrix(1,0,0,-1,0,0)" style="stroke:none;fill:#000000;fill-rule:evenodd" d="M47.66877,14.705079C47.72858,14.718336,47.776375,14.763018,47.793968,14.821697C47.811565,14.880377,47.796238,14.943985,47.753586,14.987959C47.721756,15.019241,47.678467,15.036078,47.633862,15.034533L45.465446,15.034533L45.465446,19.284784C45.467632,19.330133,45.451061,19.374395,45.419594,19.407124C45.388126,19.439852,45.344551,19.458151,45.299152,19.457747C45.219009,19.456066,45.151028,19.398626,45.135994,19.319887L45.132954,19.284784L45.132954,14.868237C45.134659,14.777084,45.208,14.703696,45.299152,14.701941L47.633862,14.701941L47.66877,14.705079z"/>
    <path transform="matrix(1,0,0,-1,0,0)" style="stroke:none;fill:#000000;fill-rule:evenodd" d="M42.085209,14.345719C42.157993,14.362085,42.208817,14.427849,42.206303,14.502405L42.206303,19.670521C42.207653,19.7115,42.192017,19.751234,42.163033,19.780237C42.134048,19.809238,42.094322,19.824902,42.053345,19.823578C42.01165,19.825279,41.971073,19.809904,41.940952,19.781023C41.910835,19.752144,41.893768,19.712248,41.893715,19.670521L41.893715,14.502405C41.89336,14.45997,41.910145,14.419224,41.940151,14.389215C41.970161,14.359207,42.010906,14.342422,42.053345,14.342777L42.085209,14.345719z"/>
    <path transform="matrix(1,0,0,-1,0,0)" style="stroke:none;fill:#000000;fill-rule:evenodd" d="M70.496521,16.495941C70.502899,16.60022,70.527649,16.70253,70.568192,16.798828C70.625031,16.918549,70.719589,17.016243,70.837051,17.077591C71.071594,17.203476,71.349655,17.218933,71.597153,17.120926C71.782761,17.040092,71.917877,16.874046,71.958771,16.675774L71.97319,16.650864L71.991623,16.630081C72.00528,16.618446,72.020554,16.609093,72.036224,16.600471C72.052277,16.593117,72.069641,16.590126,72.087112,16.587822C72.132278,16.586357,72.175446,16.604012,72.207825,16.635475L72.223709,16.656258L72.23587,16.679398L72.243912,16.704308C72.249237,16.730667,72.247986,16.757751,72.241943,16.78392C72.186935,17.013741,72.042084,17.211945,71.839737,17.333992C71.558853,17.516617,71.207993,17.555122,70.894318,17.437439C70.767258,17.389076,70.650299,17.317604,70.548294,17.227707L70.494659,17.169655L70.494659,17.342621L70.493088,17.3741L70.485352,17.404396L70.471817,17.432533C70.44014,17.488228,70.376312,17.51709,70.313263,17.505684L70.286392,17.497841C70.269714,17.49012,70.253357,17.481743,70.239426,17.469696L70.220215,17.450188L70.204422,17.427635L70.192459,17.402336C70.184555,17.383377,70.180145,17.363029,70.181976,17.342621L70.181976,17.176323L70.145294,17.214958C69.982941,17.369148,69.773392,17.46402,69.550415,17.484406C69.32283,17.514099,69.091431,17.489845,68.875046,17.413315C68.56279,17.291092,68.328995,17.025093,68.248398,16.6996C68.16655,16.394386,68.174088,16.072174,68.269867,15.771049C68.398178,15.375275,68.749039,15.093277,69.163116,15.052917C69.38736,15.022766,69.615555,15.0457,69.829483,15.119392C69.963562,15.169121,70.083984,15.24968,70.181976,15.353836L70.181976,14.462547C70.188477,14.265465,70.145432,14.069923,70.056274,13.894043C69.989288,13.771896,69.886383,13.673355,69.761429,13.611748C69.547348,13.515083,69.301132,13.520195,69.091446,13.626068C68.95285,13.705124,68.848663,13.832832,68.79866,13.984344L68.778564,14.043472C68.767593,14.070251,68.751999,14.094742,68.732864,14.116425C68.718521,14.127525,68.703873,14.138176,68.686874,14.144661C68.669922,14.1511,68.651871,14.153839,68.633728,14.154274L68.606186,14.151527C68.56633,14.145447,68.530518,14.12439,68.503723,14.094261L68.486847,14.068771L68.475677,14.040237C68.46727,14.010651,68.468033,13.979065,68.479202,13.950424C68.580093,13.57074,68.898819,13.288109,69.28804,13.23484C69.442551,13.214554,69.599594,13.224297,69.750061,13.264938C69.987411,13.336143,70.187286,13.497559,70.308258,13.713821C70.397751,13.863182,70.455124,14.029549,70.476715,14.202316C70.488708,14.288544,70.494812,14.375488,70.494659,14.462547L70.494659,16.391418L70.496521,16.495941zM69.258621,15.357567L69.165771,15.368835C68.873657,15.408241,68.633469,15.618759,68.55481,15.902832C68.475693,16.179764,68.490097,16.474876,68.5952,16.743034C68.686188,16.943665,68.864563,17.091362,69.07869,17.143089C69.312576,17.204102,69.560104,17.184601,69.781525,17.087685C69.983505,16.98597,70.123703,16.792603,70.158142,16.569092C70.215195,16.306999,70.195892,16.034019,70.101868,15.782814C69.999649,15.55455,69.784531,15.397484,69.536209,15.367661C69.444489,15.352455,69.351196,15.349083,69.258621,15.357567z"/>
</svg>
