<?xml version="1.0" encoding="UTF-8" standalone="no"?>
<svg xmlns="http://www.w3.org/2000/svg" xmlns:xlink="http://www.w3.org/1999/xlink" width="121.522mm" height="32.551mm" viewBox="-936.602600 -614.031311 121.522461 32.550537">
    <path transform="matrix(1,0,0,-1,0,0)" style="stroke:none;fill:#000000;fill-rule:evenodd" d="M-816.484497,581.591797C-816.388428,581.593384,-816.292908,581.606567,-816.199951,581.631104C-816.032288,581.675903,-815.879028,581.763367,-815.755188,581.88501C-815.669617,581.968201,-815.596802,582.063416,-815.538879,582.167725C-815.458191,582.31543,-815.412964,582.479797,-815.406677,582.647949C-815.401672,582.763123,-815.411621,582.878479,-815.436157,582.991089C-815.466919,583.131348,-815.526611,583.263672,-815.611511,583.379578C-815.702087,583.502869,-815.818359,583.605042,-815.952209,583.679077C-816.055725,583.735168,-816.167847,583.773682,-816.283936,583.793213C-816.360962,583.806335,-816.438965,583.812805,-816.517151,583.812378L-831.175537,583.797241L-830.865112,584.330627L-830.823975,584.401184L-830.778198,584.479553L-830.727722,584.565796L-830.672546,584.65979L-830.612671,584.761597L-830.548157,584.871277L-830.478943,584.988708L-830.40509,585.114014L-830.326538,585.24707L-830.243286,585.387939L-830.155396,585.536682L-830.062805,585.693176L-829.863647,586.029663L-829.757019,586.209595L-829.645752,586.3974L-829.528809,586.594788L-829.467896,586.697754L-829.341125,586.912354L-829.207764,587.138428L-829.067749,587.375916L-828.921265,587.624878L-828.768127,587.885315L-828.608398,588.157227L-828.442139,588.440552L-828.269287,588.735352L-828.089844,589.041626L-827.903809,589.359375L-827.711182,589.688538L-827.512024,590.029175L-827.306274,590.381287L-827.093933,590.744812L-826.874695,591.120239L-826.761902,591.313293L-826.529724,591.710449L-826.288696,592.122375L-826.164917,592.333862L-825.910645,592.767883L-825.647522,593.216675L-825.37561,593.680237L-825.094788,594.158569L-824.805237,594.651672L-824.506775,595.159485L-824.199463,595.682068L-823.883423,596.219421L-823.558472,596.771545L-823.22467,597.338379L-822.88208,597.920044L-822.53064,598.516418L-822.170105,599.128052L-821.985962,599.440613L-821.799072,599.757935L-821.609558,600.079895L-821.417358,600.406555L-821.222412,600.737915L-821.024841,601.073975L-820.824585,601.414673L-820.621582,601.760071L-820.415955,602.110229L-820.207642,602.464966L-819.996643,602.824463L-819.782898,603.188599L-819.566528,603.557495L-819.347473,603.93103L-819.125732,604.309265L-818.901306,604.692139L-818.674194,605.079773L-818.444397,605.472046L-818.211914,605.869019L-817.976746,606.270691L-817.738892,606.677063L-817.255127,607.503784L-816.76062,608.349365L-816.509338,608.779114L-815.998718,609.652771L-815.477356,610.545166L-815.212646,610.998413C-815.177124,611.091797,-815.14679,611.187134,-815.121826,611.283936C-815.104431,611.350952,-815.09198,611.419128,-815.084595,611.488037C-815.079834,611.538879,-815.078674,611.590027,-815.081238,611.641052C-815.083496,611.71814,-815.092957,611.7948,-815.109558,611.870056C-815.123169,611.932495,-815.145325,611.992676,-815.175354,612.049072C-815.186707,612.069885,-815.199585,612.089905,-815.213806,612.108887C-815.2453,612.177856,-815.283569,612.24353,-815.328003,612.304993C-815.38269,612.380798,-815.448792,612.447693,-815.523926,612.503296C-815.598755,612.557983,-815.681702,612.600525,-815.769775,612.629395C-815.840332,612.652466,-815.913086,612.668274,-815.986877,612.676514C-816.0401,612.682556,-816.093628,612.685547,-816.147217,612.685364L-832.004883,612.669006C-832.11145,612.669556,-832.217529,612.653625,-832.319214,612.621826C-832.435547,612.584473,-832.543884,612.525696,-832.638489,612.448425C-832.766418,612.344238,-832.872009,612.215332,-832.948853,612.069397C-833.0177,611.935913,-833.057983,611.789612,-833.067139,611.639709C-833.075989,611.513855,-833.064392,611.387329,-833.032776,611.265198C-832.996216,611.128357,-832.933411,610.999939,-832.847717,610.887146C-832.781372,610.798218,-832.703247,610.718689,-832.61554,610.650757C-832.462402,610.532776,-832.277588,610.463196,-832.084717,610.450867C-832.057373,610.448914,-832.029968,610.447998,-832.002563,610.447998L-818.099365,610.462402L-818.409729,609.929016L-818.450867,609.858459L-818.496704,609.78009L-818.54718,609.693848L-818.602356,609.599854L-818.66217,609.498047L-818.726685,609.388367L-818.795898,609.270935L-818.869751,609.145691L-818.948303,609.012573L-819.031555,608.871704L-819.212036,608.566467L-819.309326,608.402161L-819.517822,608.050049L-819.62915,607.862244L-819.746033,607.664856L-819.807007,607.56189L-819.933777,607.34729L-820.067139,607.121216L-820.207092,606.883728L-820.353638,606.634766L-820.506714,606.374329L-820.666443,606.102417L-820.832703,605.819092L-821.005615,605.524292L-821.185059,605.218018L-821.371094,604.900269L-821.56366,604.571106L-821.762878,604.230469L-821.968628,603.878357L-822.180969,603.514832L-822.400208,603.139404L-822.512939,602.94635L-822.745117,602.549194L-822.986145,602.137268L-823.109985,601.925781L-823.364258,601.49176L-823.62738,601.042969L-823.899292,600.579407L-824.180054,600.101074L-824.469666,599.608032L-824.768127,599.100159L-825.075378,598.577576L-825.391479,598.040222L-825.716431,597.488098L-826.050232,596.921265L-826.392822,596.339661L-826.744263,595.743225L-827.104797,595.131653L-827.28894,594.819031L-827.47583,594.501709L-827.665344,594.179749L-827.857544,593.853088L-828.052429,593.521729L-828.250061,593.185669L-828.450317,592.844971L-828.653259,592.499573L-828.858887,592.149475L-829.067261,591.794678L-829.278259,591.435181L-829.491943,591.071045L-829.708313,590.702148L-829.927368,590.328613L-830.149109,589.950439L-830.373535,589.567505L-830.600708,589.179871L-830.830505,588.787598L-831.062988,588.390625L-831.298157,587.988953L-831.536011,587.582581L-832.019775,586.755798L-832.514282,585.910339L-832.765564,585.48053L-833.276184,584.606873L-833.797546,583.714478L-834.062195,583.26123L-834.07312,583.247253C-834.131531,583.169434,-834.174805,583.081299,-834.200562,582.987549C-834.223877,582.902771,-834.236694,582.81543,-834.238647,582.727539C-834.242249,582.644592,-834.235291,582.561584,-834.218079,582.480347C-834.192139,582.359741,-834.138367,582.246887,-834.061096,582.150757C-834.02417,582.081848,-833.981506,582.016235,-833.93335,581.954651C-833.881775,581.888672,-833.82251,581.829041,-833.756714,581.777222C-833.647461,581.69165,-833.520386,581.631714,-833.384888,581.601624C-833.300476,581.582947,-833.214172,581.57373,-833.127686,581.57428L-816.514832,581.591431L-816.484497,581.591797z"/>
    <path transform="matrix(1,0,0,-1,0,0)" style="stroke:none;fill:#000000;fill-rule:evenodd" d="M-897.16156,581.50885C-896.684265,581.511719,-896.20752,581.539429,-895.733093,581.591858C-895.282288,581.641724,-894.834717,581.717468,-894.392639,581.818787C-893.912048,581.928894,-893.439941,582.072937,-892.979797,582.249878C-892.349976,582.492798,-891.747192,582.800781,-891.181396,583.168945C-890.678467,583.494629,-890.208191,583.868164,-889.7771,584.284363C-889.308533,584.738037,-888.889404,585.240112,-888.526733,585.782166C-888.198975,586.270264,-887.916077,586.786987,-887.68158,587.326172C-887.476074,587.800964,-887.307129,588.290833,-887.176392,588.791443C-887.055359,589.254761,-886.963562,589.725159,-886.901428,590.199951C-886.840149,590.668091,-886.803833,591.139099,-886.792542,591.611084C-886.789246,591.741394,-886.787659,591.871826,-886.787781,592.002197L-886.809143,612.657166C-886.808533,612.763245,-886.820984,612.869019,-886.846191,612.972046C-886.893677,613.164734,-886.995911,613.3396,-887.140503,613.475464C-887.277405,613.60614,-887.447754,613.696411,-887.63269,613.73645C-887.789429,613.77063,-887.951172,613.775757,-888.109741,613.751404C-888.275635,613.724426,-888.432922,613.659058,-888.569031,613.560547C-888.659912,613.495972,-888.741333,613.418945,-888.810852,613.331787C-888.906494,613.209839,-888.972595,613.067444,-889.004028,612.91571C-889.021851,612.829895,-889.030579,612.742493,-889.03009,612.654846L-889.008789,591.999878C-889.007996,591.659241,-889.022583,591.318726,-889.05249,590.979431C-889.083984,590.621521,-889.135315,590.265625,-889.206299,589.913452C-889.27417,589.576904,-889.362488,589.244812,-889.470703,588.918945C-889.596252,588.541077,-889.751221,588.173584,-889.934143,587.819885C-890.220886,587.266968,-890.577026,586.752869,-890.993958,586.2901C-891.281616,585.970032,-891.595886,585.674866,-891.933472,585.407898C-892.422424,585.022034,-892.958679,584.700134,-893.529175,584.450012C-893.867371,584.301758,-894.215576,584.177368,-894.571228,584.07782C-894.907471,583.983704,-895.248901,583.909485,-895.593872,583.85553C-895.956421,583.798889,-896.321655,583.761597,-896.688171,583.743774C-897.182861,583.719116,-897.67865,583.725769,-898.172485,583.763794C-898.53302,583.791687,-898.891724,583.839355,-899.247009,583.906494C-899.586487,583.970764,-899.921814,584.055359,-900.25116,584.159912C-900.632935,584.281006,-901.0047,584.431519,-901.36322,584.610046C-901.922852,584.889343,-902.444824,585.238342,-902.916748,585.648743C-903.268433,585.953857,-903.591553,586.290344,-903.882202,586.654053C-904.271484,587.142395,-904.596619,587.67865,-904.849487,588.249695C-904.999146,588.587769,-905.124695,588.936035,-905.225342,589.291809C-905.320313,589.62793,-905.395264,589.969421,-905.449768,590.314392C-905.501221,590.639709,-905.536743,590.967346,-905.556335,591.296082C-905.570129,591.524719,-905.577026,591.753723,-905.577148,591.982788L-905.598511,612.637756C-905.5979,612.743835,-905.610352,612.849609,-905.635559,612.952637C-905.683044,613.145325,-905.785278,613.32019,-905.929871,613.456116C-906.066772,613.586731,-906.237122,613.677002,-906.422058,613.717041C-906.578796,613.751221,-906.74054,613.756348,-906.899109,613.731995C-907.065002,613.705017,-907.22229,613.639648,-907.358398,613.541138C-907.44928,613.476563,-907.530701,613.399536,-907.60022,613.312378C-907.695862,613.19043,-907.761963,613.048035,-907.793396,612.896301C-907.811157,612.810486,-907.819946,612.723083,-907.819458,612.635437L-907.798157,591.980469C-907.79834,591.501404,-907.773865,591.022705,-907.72467,590.546143C-907.677979,590.093567,-907.605408,589.644043,-907.507324,589.199829C-907.400879,588.717346,-907.260498,588.242981,-907.087097,587.780334C-906.743103,586.863708,-906.261719,586.004822,-905.659363,585.233032C-905.139343,584.568787,-904.529602,583.980042,-903.847595,583.483521C-903.048035,582.901611,-902.165466,582.443176,-901.229614,582.123657C-900.756775,581.96228,-900.273376,581.83374,-899.782837,581.739014C-899.330811,581.651672,-898.874268,581.589722,-898.415283,581.553284C-897.998291,581.520081,-897.579895,581.505249,-897.16156,581.50885z"/>
    <path transform="matrix(1,0,0,-1,0,0)" style="stroke:none;fill:#000000;fill-rule:evenodd" d="M-924.508484,581.480957C-924.400452,581.481873,-924.292908,581.494995,-924.187866,581.520203C-924.080322,581.546021,-923.977661,581.589294,-923.884033,581.648193C-923.781433,581.713989,-923.692444,581.798889,-923.621948,581.898315C-923.562317,581.982666,-923.513428,582.074097,-923.47644,582.170532L-923.468018,582.192566L-912.527588,612.364624L-912.516846,612.392395C-912.480164,612.488464,-912.456909,612.589172,-912.447754,612.691589C-912.434387,612.85144,-912.46167,613.012024,-912.5271,613.158447C-912.592957,613.308594,-912.690063,613.442932,-912.812012,613.552551C-912.902588,613.632751,-913.004395,613.699341,-913.114136,613.750183C-913.201477,613.79187,-913.293213,613.823608,-913.387634,613.844849C-913.501038,613.8703,-913.618164,613.875244,-913.733337,613.859436C-913.839905,613.843933,-913.943298,613.811096,-914.039307,613.762268C-914.236023,613.664795,-914.400635,613.512817,-914.51355,613.324524C-914.553406,613.258545,-914.587708,613.189331,-914.616089,613.117615L-924.537842,585.833862L-934.471497,613.097107C-934.513367,613.203308,-934.568787,613.30365,-934.636292,613.395691C-934.744629,613.541992,-934.886353,613.660217,-935.049622,613.740601C-935.153564,613.793335,-935.266052,613.827087,-935.381836,613.840332C-935.488708,613.851685,-935.59668,613.845459,-935.701477,613.821777C-935.868958,613.783569,-936.027222,613.712708,-936.167358,613.61322C-936.327209,613.498535,-936.451416,613.341003,-936.525635,613.158813C-936.601318,612.977905,-936.622375,612.778809,-936.586121,612.586121C-936.570435,612.501831,-936.546265,612.419312,-936.514038,612.339844L-925.555725,582.19043C-925.522217,582.09967,-925.479065,582.012756,-925.427002,581.931152C-925.365784,581.834961,-925.28833,581.750183,-925.197937,581.680664C-925.103027,581.609009,-924.995239,581.55603,-924.880432,581.524841C-924.774902,581.496277,-924.666138,581.481567,-924.556824,581.480957C-924.54071,581.480652,-924.524597,581.480713,-924.508484,581.480957z"/>
    <path transform="matrix(1,0,0,-1,0,0)" style="stroke:none;fill:#000000;fill-rule:evenodd" d="M-860.466919,581.546204C-860.338318,581.550415,-860.211304,581.576172,-860.091187,581.622314C-860.042175,581.640625,-859.994141,581.661682,-859.947388,581.685242C-859.757751,581.802795,-859.607849,581.97467,-859.51709,582.178528C-859.471619,582.277344,-859.439697,582.381775,-859.422119,582.489136C-859.399475,582.637085,-859.408325,582.788147,-859.448059,582.932434C-859.472473,583.02356,-859.506409,583.111816,-859.549194,583.195923L-866.447083,595.670593L-866.384705,595.684753C-865.805298,595.817078,-865.241028,596.008484,-864.700684,596.255981C-864.048828,596.555969,-863.438171,596.938416,-862.883667,597.393799C-862.067505,598.060486,-861.371277,598.861816,-860.825134,599.763062C-860.593262,600.144409,-860.38855,600.541626,-860.212524,600.951782C-859.932922,601.608398,-859.736877,602.297546,-859.629028,603.002991L-853.392944,592.130554C-853.32666,592.021057,-853.245728,591.921082,-853.152466,591.833313C-853.070679,591.75769,-852.977417,591.695496,-852.876221,591.648926C-852.767944,591.599854,-852.6521,591.56958,-852.533691,591.559509C-852.471069,591.553772,-852.408142,591.552429,-852.345337,591.55542C-852.246765,591.559387,-852.148865,591.574097,-852.053467,591.599243C-851.966492,591.622803,-851.88324,591.658325,-851.806091,591.704834C-851.695984,591.772217,-851.601807,591.862671,-851.530029,591.969971C-851.494934,592.021484,-851.464294,592.075867,-851.438477,592.132568L-841.905518,608.755249L-841.878601,582.725525C-841.879944,582.579041,-841.851013,582.433838,-841.79364,582.299011C-841.74823,582.194763,-841.685913,582.098755,-841.609192,582.014893C-841.523987,581.919861,-841.423035,581.84021,-841.31073,581.77948C-841.185242,581.713135,-841.047241,581.673828,-840.90564,581.664124C-840.784302,581.655029,-840.662292,581.662659,-840.543091,581.686829C-840.331604,581.728821,-840.136597,581.830688,-839.981323,581.980286C-839.897034,582.059814,-839.82605,582.152344,-839.770874,582.254272C-839.703674,582.381714,-839.665527,582.522522,-839.659241,582.666443C-839.658142,582.68689,-839.657593,582.707336,-839.657654,582.727844L-839.688843,612.90918C-839.689819,613.031067,-839.708862,613.152161,-839.745239,613.268494C-839.804993,613.452209,-839.916138,613.61499,-840.065491,613.737427C-840.151367,613.808838,-840.245667,613.869446,-840.346252,613.917969C-840.407288,613.948181,-840.46991,613.974915,-840.533936,613.998169C-840.659973,614.033203,-840.791748,614.042419,-840.921448,614.02533C-841.010315,614.014526,-841.097961,613.994873,-841.182922,613.966736C-841.266907,613.940369,-841.34729,613.903809,-841.422363,613.85791C-841.559998,613.773071,-841.67334,613.654053,-841.751343,613.51239C-841.760376,613.49646,-841.768921,613.480225,-841.7771,613.463806L-852.418579,594.885559L-859.652527,607.507141L-860.622742,608.625061L-860.637573,608.651428C-860.813721,608.958618,-861.006409,609.255981,-861.214844,609.542236C-861.46167,609.881409,-861.730835,610.203796,-862.020447,610.507324C-862.500244,611.009033,-863.033936,611.456299,-863.611938,611.84082C-863.905273,612.037231,-864.209717,612.216553,-864.523621,612.378052C-865.285645,612.767029,-866.103088,613.036377,-866.947144,613.176453C-867.367798,613.246887,-867.792847,613.287903,-868.219177,613.299072C-868.315613,613.301758,-868.412048,613.303101,-868.508545,613.302979L-879.43573,613.291687C-879.664978,613.293091,-879.888367,613.218994,-880.07135,613.080811C-880.199463,612.984924,-880.308655,612.866028,-880.393311,612.730225C-880.489502,612.572693,-880.541809,612.392273,-880.544739,612.207703L-880.545044,612.180054L-880.514526,582.641235C-880.515259,582.519287,-880.494263,582.398193,-880.452393,582.28363C-880.411377,582.173889,-880.351013,582.072327,-880.27417,581.983887C-880.167114,581.858765,-880.035828,581.756775,-879.888184,581.68396C-879.753662,581.619202,-879.607239,581.582947,-879.458069,581.577454C-879.32373,581.571411,-879.189331,581.585999,-879.059448,581.620728C-878.88501,581.66925,-878.726379,581.762878,-878.599487,581.89209C-878.514771,581.977051,-878.444885,582.0755,-878.3927,582.183533C-878.339417,582.296143,-878.307251,582.417542,-878.297729,582.541748C-878.294922,582.575623,-878.293518,582.609558,-878.293579,582.643494L-878.322937,611.071838L-868.506287,611.082031C-868.031982,611.08374,-867.558777,611.037354,-867.093872,610.943542C-866.375061,610.796509,-865.68689,610.526794,-865.059509,610.146362C-864.589844,609.864807,-864.15448,609.529724,-863.762024,609.147949C-863.375183,608.77002,-863.033752,608.348206,-862.744812,607.891113C-862.498901,607.506042,-862.295593,607.095398,-862.138489,606.666382C-861.983948,606.24292,-861.875305,605.804138,-861.814453,605.357544C-861.76886,605.028687,-861.746521,604.697083,-861.747498,604.365051C-861.747131,603.913208,-861.790222,603.462341,-861.876099,603.018738C-862.020813,602.282166,-862.294067,601.576782,-862.683228,600.934875C-862.972534,600.452637,-863.319275,600.007202,-863.715759,599.608337C-864.077026,599.246277,-864.477234,598.925415,-864.909119,598.651489C-865.280518,598.413513,-865.675049,598.213806,-866.08667,598.055359C-866.564575,597.872314,-867.062622,597.74707,-867.570251,597.682312C-867.875977,597.642517,-868.184021,597.622681,-868.492371,597.622925L-875.288513,597.615967C-875.429138,597.61676,-875.568604,597.590881,-875.699585,597.539734C-875.811523,597.495117,-875.915588,597.432861,-876.007813,597.355286C-876.085815,597.29126,-876.154846,597.21698,-876.213074,597.134583C-876.300476,597.008545,-876.358093,596.864258,-876.381531,596.712708C-876.403442,596.580017,-876.40332,596.444641,-876.381104,596.312012C-876.352722,596.153442,-876.28772,596.003784,-876.191223,595.874817C-876.090149,595.737488,-875.962524,595.621826,-875.81604,595.534607C-875.663269,595.446045,-875.490356,595.398071,-875.313782,595.395264L-875.286255,595.394958L-868.801025,595.401672L-861.45813,582.127869C-861.395996,582.014343,-861.315552,581.911926,-861.220032,581.824707C-861.110229,581.726257,-860.981384,581.651306,-860.841492,581.604553C-860.721069,581.562927,-860.594238,581.543152,-860.466919,581.546204z"/>
</svg>
