<svg xmlns="http://www.w3.org/2000/svg" viewBox="0 0 64 64">
  <!-- VURMZ favicon: the V from the wordmark, deep teal on oatmeal paper,
       with the signal teal as the one bright mark. Same object as the site. -->
  <rect width="64" height="64" rx="12" fill="#DED6C3"/>
  <g transform="translate(32 32) scale(7.1082) translate(-19.7600 17.2750) scale(1 -1)">
    <path d="M19.761822,14.183045C19.782459,14.183211,19.803013,14.185719,19.823082,14.190535C19.843636,14.195471,19.863247,14.203736,19.881138,14.214994C19.900742,14.227562,19.917742,14.24379,19.931213,14.262783C19.942608,14.278897,19.951946,14.296371,19.959009,14.314798L19.960621,14.319009L22.050941,20.083796L22.052986,20.089096C22.059998,20.107456,22.064442,20.126696,22.066193,20.146271C22.068752,20.176805,22.063538,20.207493,22.051035,20.235468C22.038454,20.264153,22.019897,20.289825,21.996601,20.310766C21.979296,20.326092,21.959846,20.338812,21.938868,20.348524C21.922184,20.356487,21.904659,20.362553,21.886621,20.366608C21.864948,20.371473,21.842577,20.372417,21.820568,20.369396C21.800201,20.366436,21.780453,20.360167,21.762108,20.350838C21.72452,20.332209,21.693066,20.303179,21.671492,20.2672C21.663876,20.254587,21.657326,20.241364,21.651907,20.227661L19.756218,15.014726L17.85825,20.223743C17.85025,20.244036,17.839666,20.263212,17.826763,20.280798C17.806068,20.308743,17.778992,20.331335,17.747793,20.346691C17.727936,20.356764,17.706438,20.363218,17.684313,20.365751C17.663902,20.367924,17.643272,20.366726,17.623251,20.362206C17.591248,20.354898,17.561005,20.34136,17.534237,20.322361C17.503696,20.300444,17.479965,20.270342,17.465782,20.235531C17.451317,20.200974,17.4473,20.162933,17.454227,20.126118C17.457222,20.110008,17.461838,20.094244,17.468002,20.079063L19.561737,14.318597C19.568136,14.30125,19.576382,14.284643,19.586327,14.269058C19.598019,14.250681,19.612823,14.234478,19.630089,14.221199C19.648235,14.207502,19.668823,14.19739,19.690762,14.191427C19.71092,14.185971,19.731705,14.183158,19.752588,14.183036C19.755667,14.182988,19.758743,14.182995,19.761822,14.183045z" fill="#16525C"/>
  </g>
  <rect x="20" y="53" width="24" height="2.5" rx="1.25" fill="#7FCFD4"/>
</svg>
